<?xml version="1.0" encoding="UTF-8" standalone="no"?>
<!-- Created with Inkscape (http://www.inkscape.org/) -->

<svg
   xmlns:dc="http://purl.org/dc/elements/1.1/"
   xmlns:cc="http://creativecommons.org/ns#"
   xmlns:rdf="http://www.w3.org/1999/02/22-rdf-syntax-ns#"
   xmlns:svg="http://www.w3.org/2000/svg"
   xmlns="http://www.w3.org/2000/svg"
   xmlns:sodipodi="http://sodipodi.sourceforge.net/DTD/sodipodi-0.dtd"
   xmlns:inkscape="http://www.inkscape.org/namespaces/inkscape"
   width="103.96801"
   height="128.03252"
   viewBox="0 0 27.508203 33.87527"
   version="1.1"
   id="svg69"
   inkscape:version="0.92.0 r15299"
   sodipodi:docname="origin energy.svg">
  <defs
     id="defs63">
    <linearGradient
       y2="81.375816"
       y1="-1.7107983e-005"
       x2="40.687763"
       x1="40.687763"
       id="desktop-nav"
       gradientTransform="matrix(0.27961928,0,0,0.25035592,47.613396,60.96847)"
       gradientUnits="userSpaceOnUse">
      <stop
         id="stop10"
         stop-color="#FF373C"
         offset="0%" />
      <stop
         id="stop12"
         stop-color="#FFC72C"
         offset="100%" />
    </linearGradient>
  </defs>
  <sodipodi:namedview
     id="base"
     pagecolor="#ffffff"
     bordercolor="#666666"
     borderopacity="1.0"
     inkscape:pageopacity="0.0"
     inkscape:pageshadow="2"
     inkscape:zoom="4.1957762"
     inkscape:cx="51.484004"
     inkscape:cy="63.516258"
     inkscape:document-units="mm"
     inkscape:current-layer="layer1"
     showgrid="false"
     fit-margin-top="0"
     fit-margin-left="0"
     fit-margin-right="0"
     fit-margin-bottom="0"
     units="px"
     inkscape:window-width="1280"
     inkscape:window-height="744"
     inkscape:window-x="-4"
     inkscape:window-y="-4"
     inkscape:window-maximized="1" />
  <metadata
     id="metadata66">
    <rdf:RDF>
      <cc:Work
         rdf:about="">
        <dc:format>image/svg+xml</dc:format>
        <dc:type
           rdf:resource="http://purl.org/dc/dcmitype/StillImage" />
        <dc:title></dc:title>
      </cc:Work>
    </rdf:RDF>
  </metadata>
  <g
     inkscape:label="Layer 1"
     inkscape:groupmode="layer"
     id="layer1"
     transform="translate(-45.342476,-60.70388)">
    <g
       id="g87"
       transform="translate(0.13229182,-0.13229487)">
      <path
         id="path17"
         d="m 63.726786,87.969201 v -2.51645 h -1.27609 v 0.281511 a 0.03069167,0.03069167 0 0 0 -0.01,-0.007 2.7101271,2.7101271 0 0 0 -1.37901,-0.36989 c -1.47452,0 -2.65509,1.15781 -2.65509,2.61223 a 2.5968854,2.5968854 0 0 0 0.93583,1.994961 2.5770416,2.5770416 0 0 0 -0.93583,1.992569 c 0,1.441982 1.18057,2.622021 2.65509,2.622021 1.48432,0 2.66489,-1.180039 2.66489,-2.622021 a 2.5728083,2.5728083 0 0 0 -0.93557,-1.992569 2.5889479,2.5889479 0 0 0 0.93557,-1.994961 z m -4.04389,0 c 0,-0.736869 0.61965,-1.36843 1.379,-1.36843 0.71517,0 1.3007,0.545841 1.37901,1.21444 0.007,0.0511 0.01,0.102399 0.01,0.15399 0,0.0513 -0.002,0.10504 -0.01,0.15425 -0.0783,0.67813 -0.66384,1.22396 -1.37901,1.22396 -0.75935,0 -1.379,-0.631561 -1.379,-1.378479 z m 2.75801,4.144172 c -0.0783,0.678389 -0.66384,1.22396 -1.37901,1.22396 -0.75935,0 -1.379,-0.631301 -1.379,-1.380601 0,-0.7366 0.61965,-1.368161 1.379,-1.368161 0.71517,0 1.3007,0.545841 1.37901,1.214181 0.007,0.0513 0.01,0.102658 0.01,0.15398 0,0.054 -0.002,0.105568 -0.01,0.156641 z m 8.85005,-4.335201 c 0,-0.968381 -0.51594,-1.17898 -1.03214,-1.17898 -0.51594,0 -1.0324,0.20002 -1.0324,1.158081 v 2.694509 h -1.29514 v -4.99983 h 1.29514 v 0.3683 c 0.28442,-0.210611 0.63209,-0.46302 1.31656,-0.46302 1.09538,0 2.043119,0.64188 2.043119,2.210329 v 2.884221 h -1.295139 z m -6.14018,2.67361 h 1.2954 v -4.99983 h -1.2954 z m -9.25513,0 h 1.29514 v -4.99983 h -1.29514 z m -4.18121,-4.99983 h 1.2954 v 0.3683 c 0.48445,-0.357981 0.95859,-0.46302 1.92749,-0.46302 v 1.24196 c -1.65365,0 -1.92749,0.46302 -1.92749,1.326089 v 2.526501 h -1.2954 z m -3.71792,5.136619 c -1.47453,0 -2.65404,-1.178981 -2.65404,-2.62096 0,-1.45256 1.17951,-2.610639 2.65377,-2.610639 1.48537,0 2.66488,1.15781 2.66488,2.610639 0,1.441979 -1.17951,2.62096 -2.66461,2.62096 z m 0,-3.989379 c -0.7583,0 -1.37981,0.631559 -1.37981,1.368419 0,0.747181 0.62151,1.378749 1.37981,1.378749 0.76887,0 1.39012,-0.631568 1.39012,-1.378749 0,-0.73686 -0.62125,-1.368419 -1.39012,-1.368419 z"
         inkscape:connector-curvature="0"
         style="fill:#ff373c;fill-rule:evenodd;stroke-width:0.26458332" />
      <path
         id="path19"
         d="m 58.990476,60.968471 c -4.9186,-0.004 -9.28158,3.13002 -10.81219,7.76711 -1.53035,4.63656 0.11959,9.72396 4.08834,12.605811 4.00182,-2.912541 9.44589,-2.912541 13.44771,0 3.96875,-2.881851 5.61869,-7.969251 4.08834,-12.605811 -1.53061,-4.63709 -5.89359,-7.77134 -10.8122,-7.76711 z m 0,17.036521 c -3.20384,-0.003 -5.7994,-2.580221 -5.79861,-5.758391 0.001,-3.17791 2.59821,-5.75416 5.80179,-5.75469 3.2041,-0.001 5.80231,2.5736 5.80496,5.75151 a 5.7332562,5.7332562 0 0 1 -1.69969,4.07538 5.8271833,5.8271833 0 0 1 -4.10845,1.686191 z"
         inkscape:connector-curvature="0"
         style="fill:url(#desktop-nav);fill-rule:nonzero;stroke-width:0.26458332" />
    </g>
  </g>
</svg>
